PathFileType	3	(X/Y/Z)	random_1__view1_aligned.trc
DataRate	CameraRate	NumFrames	NumMarkers	Units	OrigDataRate	OrigDataStartFrame	OrigNumFrames
100.0	100.0	6	19	mm	100.0	889	1930
Frame#	Time	pelvis			neck			head			hip_left			hip_right			knee_left			knee_right			ankle_left			ankle_right			heel_left			heel_right			toe_left			toe_right			shoulder_left			shoulder_right			elbow_left			elbow_right			wrist_left			wrist_right			
		X1	Y1	Z1	X2	Y2	Z2	X3	Y3	Z3	X4	Y4	Z4	X5	Y5	Z5	X6	Y6	Z6	X7	Y7	Z7	X8	Y8	Z8	X9	Y9	Z9	X10	Y10	Z10	X11	Y11	Z11	X12	Y12	Z12	X13	Y13	Z13	X14	Y14	Z14	X15	Y15	Z15	X16	Y16	Z16	X17	Y17	Z17	X18	Y18	Z18	X19	Y19	Z19	
889	8.88000	-64.032742	934.382621	-279.153556	-121.955058	1509.148016	-355.935569	-265.779331	1582.105290	-396.338071	-94.202225	940.805806	-207.313495	-33.863259	927.959436	-350.993617	-272.489808	528.681631	-123.707484	-205.817682	506.101396	-382.029795	-88.366718	174.545163	23.561821	-117.940290	100.339868	-300.684946	-44.196574	136.644727	42.287125	-83.924126	52.064869	-284.138173	-255.572893	86.790745	-13.370708	-294.668937	48.278335	-357.840564	-146.213443	1489.999942	-184.631310	-2.500405	1470.269121	-482.028261	-218.192458	1346.227513	59.043532	149.214213	1299.579134	-674.441069	-336.231644	1215.578639	271.155231	248.276085	1162.751826	-901.049009
890	8.89000	-65.916422	935.477743	-275.616505	-124.357389	1510.070530	-353.107107	-268.031746	1582.052993	-394.890745	-96.371173	941.869025	-203.814141	-35.461671	929.086461	-347.418870	-274.542932	529.281321	-121.420769	-206.218041	506.651397	-378.990525	-90.598521	174.769429	25.686890	-119.521500	100.057262	-299.161610	-46.433593	136.901231	44.478522	-85.519548	51.715408	-282.748061	-257.156418	86.519001	-11.964755	-296.368949	47.757267	-356.380807	-149.301382	1490.983638	-181.701095	-4.403837	1470.955327	-478.860469	-217.959478	1345.436783	60.943913	147.187841	1298.378904	-668.500051	-334.272759	1212.225892	271.211779	246.547032	1159.076539	-892.754882
891	8.90000	-67.800103	936.572865	-272.079455	-126.759720	1510.993044	-350.278645	-270.284160	1582.000697	-393.443420	-98.540122	942.932244	-200.314786	-37.060084	930.213486	-343.844124	-276.596055	529.881011	-119.134053	-206.618399	507.201397	-375.951255	-92.830324	174.993695	27.811958	-121.102711	99.774655	-297.638273	-48.670611	137.157736	46.669919	-87.114970	51.365947	-281.357948	-258.739943	86.247258	-10.558801	-298.068961	47.236199	-354.921049	-152.389321	1491.967334	-178.770879	-6.307268	1471.641534	-475.692677	-217.726498	1344.646054	62.844295	145.161469	1297.178674	-662.559033	-332.313874	1208.873146	271.268327	244.817979	1155.401253	-884.460755
892	8.91000	-69.683783	937.667987	-268.542404	-129.162051	1511.915559	-347.450183	-272.536575	1581.948401	-391.996095	-100.709071	943.995463	-196.815431	-38.658496	931.340511	-340.269377	-278.649179	530.480702	-116.847338	-207.018757	507.751398	-372.911985	-95.062127	175.217961	29.937026	-122.683921	99.492049	-296.114936	-50.907629	137.414241	48.861316	-88.710393	51.016486	-279.967835	-260.323468	85.975515	-9.152848	-299.768973	46.715131	-353.461291	-155.477260	1492.951030	-175.840664	-8.210700	1472.327740	-472.524884	-217.493518	1343.855324	64.744676	143.135097	1295.978444	-656.618015	-330.354989	1205.520399	271.324875	243.088926	1151.725967	-876.166629
893	8.92000	-71.567464	938.763109	-265.005354	-131.564382	1512.838073	-344.621721	-274.788989	1581.896104	-390.548770	-102.878019	945.058682	-193.316076	-40.256908	932.467536	-336.694631	-280.702302	531.080392	-114.560622	-207.419115	508.301398	-369.872715	-97.293930	175.442228	32.062094	-124.265132	99.209442	-294.591599	-53.144648	137.670745	51.052713	-90.305815	50.667025	-278.577722	-261.906993	85.703771	-7.746895	-301.468985	46.194063	-352.001533	-158.565200	1493.934726	-172.910449	-10.114132	1473.013946	-469.357092	-217.260538	1343.064594	66.645058	141.108725	1294.778214	-650.676996	-328.396104	1202.167653	271.381423	241.359873	1148.050681	-867.872502
894	8.93000	-73.451144	939.858231	-261.468303	-133.966713	1513.760587	-341.793259	-277.041404	1581.843808	-389.101444	-105.046968	946.121901	-189.816722	-41.855320	933.594561	-333.119884	-282.755426	531.680082	-112.273906	-207.819474	508.851399	-366.833445	-99.525732	175.666494	34.187162	-125.846342	98.926836	-293.068262	-55.381666	137.927250	53.244109	-91.901237	50.317565	-277.187609	-263.490518	85.432028	-6.340941	-303.168997	45.672995	-350.541775	-161.653139	1494.918422	-169.980234	-12.017564	1473.700153	-466.189300	-217.027558	1342.273865	68.545439	139.082353	1293.577985	-644.735978	-326.437218	1198.814906	271.437971	239.630820	1144.375395	-859.578375
